<svg version="1" xmlns="http://www.w3.org/2000/svg" width="1365.333" height="1365.333" viewBox="0 0 1024.000000 1024.000000"><path d="M474.5 1.1c-67.4 5.6-126.8 21.6-186 50.3C173.6 107.1 83.8 203.5 36.2 322.5c-39.3 98.2-46.9 207.6-21.6 311.3 19.2 78.8 58 153.6 110.8 213.7 47.7 54.2 100.4 94.7 163.1 125.1 98.4 47.7 206.5 62.6 315 43.4 70.1-12.4 145-43.8 203.5-85.3 91.2-64.8 158.2-155.8 192.4-261.4 29.1-89.8 32.5-186.7 10-279.1-18.8-77.2-57.2-151.9-108.7-211.7-16.7-19.4-47.5-49-68.7-66.1-57.1-46.2-126.3-80.3-198.2-97.8-28.5-7-49.9-10.4-81.3-13.1-18.3-1.6-61.1-1.8-78-.4zm-50 274.9c65.5 6.2 123.4 46.4 151.5 105.2 21.5 45 24.3 93.8 8.3 141.8-3.8 11.5-16.5 36.4-24 47-8.7 12.2-32 35.6-43.5 43.5-4.8 3.3-8.7 6.4-8.7 6.8-.1.5 11.2 27.3 24.9 59.7 13.8 32.4 25.3 59.6 25.6 60.4.6 1.5-4.2 1.6-49.2 1.4l-49.8-.3-20.1-46.5-20.1-46.5-25-.3c-13.7-.2-37.2 0-52.1.3l-27.3.7V742h-94V275h96.3c58.7 0 100.5.4 107.2 1zM812 516v48h92v89h-92v89h-89v-89h-93v-89h93v-96h89v48z"/><path d="M315 462v93h52.8c57.6 0 58.8-.1 74.1-6 15-5.8 31.9-19 41.7-32.5 5-6.9 12.8-23.5 15-32 2.6-9.8 2.6-35.2.1-44.4-9.3-33.8-33.7-58.8-67.2-68.7-5.4-1.6-11.9-1.8-61.2-2.1l-55.3-.4V462z"/></svg>